<svg width="130" height="130" viewBox="0 0 130 130" fill="none" xmlns="http://www.w3.org/2000/svg">
<path fill-rule="evenodd" clip-rule="evenodd" d="M72.1254 105.66L65 111.882L57.8746 105.66C32.4247 83.4379 19.5 63.7729 19.5 45.5C19.5 19.6392 39.6727 0 65 0C90.3273 0 110.5 19.6392 110.5 45.5C110.5 63.7729 97.5753 83.4379 72.1254 105.66ZM23.9561 83.2222C26.6249 86.8761 29.5979 90.5927 32.8736 94.3733C20.7691 97.0997 13 100.969 13 104C13 109.245 36.2644 117 65 117C93.7356 117 117 109.245 117 104C117 100.969 109.231 97.0997 97.1264 94.3733C100.402 90.5927 103.375 86.8761 106.044 83.2222C120.661 87.6577 130 94.7724 130 104C130 120.294 100.882 130 65 130C29.1183 130 0 120.294 0 104C0 94.7724 9.3388 87.6577 23.9561 83.2222ZM65.0001 13C83.2245 13 97.5001 26.8981 97.5001 45.5C97.5001 58.8053 86.9225 75.1783 65.0001 94.6142C43.0777 75.1783 32.5001 58.8053 32.5001 45.5C32.5001 26.8981 46.7757 13 65.0001 13ZM64.9999 26C75.7694 26 84.4999 34.7304 84.4999 45.5C84.4999 56.2695 75.7694 65 64.9999 65C54.2303 65 45.4999 56.2695 45.4999 45.5C45.4999 34.7304 54.2303 26 64.9999 26ZM58.5 45.5C58.5 41.9101 61.4101 39 65 39C68.5898 39 71.5 41.9101 71.5 45.5C71.5 49.0898 68.5898 52 65 52C61.4101 52 58.5 49.0898 58.5 45.5Z" fill="black"/>
</svg>
